<?xml version="1.0" encoding="utf-8"?>
<!-- Generator: Adobe Illustrator 16.0.0, SVG Export Plug-In . SVG Version: 6.00 Build 0)  -->
<!DOCTYPE svg PUBLIC "-//W3C//DTD SVG 1.1//EN" "http://www.w3.org/Graphics/SVG/1.1/DTD/svg11.dtd">
<svg version="1.1" id="Layer_1" xmlns="http://www.w3.org/2000/svg" xmlns:xlink="http://www.w3.org/1999/xlink" x="0px" y="0px"
	 width="300px" height="300px" viewBox="0 0 300 300" enable-background="new 0 0 300 300" xml:space="preserve">
<path fill="none" stroke="#7372B5" stroke-width="21" stroke-miterlimit="10" d="M15.354,270.574h19.441H56.19
	c0,0,8.593-0.416,15.959-3.305c5.638-2.221,10.037-6.77,12.486-8.434c6.744-4.557,16.986-15.413,21.105-21.777
	c24.609-38.022,58.129-122.853,79.401-162.837c3.06-5.751,10.619-16.782,15.153-21.196c1.988-1.951,6.504-6.201,10.739-9.162
	c2.03-1.431,4.42-2.854,6.367-3.698c2.84-1.238,3.651-1.304,4.915-1.559c4.656-0.94,22.02-1.18,22.02-1.18l44.302,0.175"/>
<path fill="none" stroke="#1C164E" stroke-width="21" stroke-miterlimit="10" d="M15.756,37.426h20.569h20.019
	c0,0,8.043,0.413,14.936,3.304c5.276,2.216,9.391,6.769,11.683,8.429c6.312,4.557,15.941,15.496,19.754,21.78
	c23.211,38.256,74.296,162.84,74.296,162.84s9.941,16.783,14.184,21.193c1.863,1.951,6.084,6.203,10.047,9.162
	c1.901,1.432,4.124,2.88,5.959,3.699c7.549,3.369-3.215-1.103,5.158,1.964c0,0,5.691,0.646,7.557,0.776
	c3.152,0.221,12.515,0.629,12.515,0.629l51.254-0.85"/>
</svg>
